<?xml version="1.0" encoding="UTF-8"?>
<svg width="63px" height="46px" viewBox="0 0 63 46" version="1.1" xmlns="http://www.w3.org/2000/svg" xmlns:xlink="http://www.w3.org/1999/xlink">
    <!-- Generator: sketchtool 54.1 (76490) - https://sketchapp.com -->
    <title>1746727B-17DB-4681-9511-F886FAFC35C7</title>
    <desc>Created with sketchtool.</desc>
    <defs>
        <rect id="path-1" x="452" y="0" width="205.706422" height="140" rx="2"></rect>
        <filter x="-4.6%" y="-3.9%" width="109.2%" height="113.6%" filterUnits="objectBoundingBox" id="filter-2">
            <feOffset dx="0" dy="4" in="SourceAlpha" result="shadowOffsetOuter1"></feOffset>
            <feGaussianBlur stdDeviation="2.5" in="shadowOffsetOuter1" result="shadowBlurOuter1"></feGaussianBlur>
            <feColorMatrix values="0 0 0 0 0   0 0 0 0 0   0 0 0 0 0  0 0 0 0.06 0" type="matrix" in="shadowBlurOuter1"></feColorMatrix>
        </filter>
    </defs>
    <g id="Main-UI" stroke="none" stroke-width="1" fill="none" fill-rule="evenodd">
        <g id="💻-00_Homepage_test" transform="translate(-688.000000, -3344.000000)">
            <g id="Bloc-/-Les-secteurs" transform="translate(164.000000, 3018.000000)">
                <g id="Group-4" transform="translate(1.000000, 307.689941)">
                    <g id="ico-enseignement-2" transform="translate(523.000000, 19.000000)">
                        <g id="ico-enseignement">
                            <polygon id="Path-2" fill="#66d3b9" fill-rule="nonzero" points="51.3356934 20.8740234 31.245283 30.4821777 10.7622642 20.3962264 10.7622642 32.8509434 12.4570313 35.6845703 31.0489788 44.5478516 50.8498535 35.0612793 51.3356934 33.3220215"></polygon>
                            <path d="M31.245283,31.6792453 C31.0716981,31.6792453 30.9849057,31.6792453 30.8981132,31.5924528 L0.520754717,16.6641509 C0.0867924528,16.490566 -0.0867924528,15.9698113 0.0867924528,15.5358491 C0.173584906,15.3622642 0.347169811,15.1886792 0.520754717,15.1018868 L30.8981132,0.173584906 C31.1584906,0.0867924528 31.4188679,0.0867924528 31.6792453,0.173584906 L62.0566038,15.1018868 C62.490566,15.2754717 62.6641509,15.7962264 62.490566,16.2301887 C62.4037736,16.4037736 62.2301887,16.5773585 62.0566038,16.6641509 L31.6792453,31.5924528 C31.5056604,31.5924528 31.4188679,31.6792453 31.245283,31.6792453 Z" id="Shape" fill="#183066" fill-rule="nonzero"></path>
                            <polygon id="Path" fill="#fcfaf4" fill-rule="nonzero" points="2.86415094 15.8830189 31.245283 29.7698113 59.6264151 15.7962264 31.245283 1.90943396"></polygon>
                            <path d="M31.245283,19.8754717 C27.9471698,19.8754717 25.3433962,18.1396226 25.3433962,15.7962264 C25.3433962,13.4528302 27.9471698,11.7169811 31.245283,11.7169811 C34.5433962,11.7169811 37.1471698,13.4528302 37.1471698,15.7962264 C37.1471698,18.1396226 34.5433962,19.8754717 31.245283,19.8754717 Z" id="Shape" fill="#183066" fill-rule="nonzero"></path>
                            <path d="M12.845283,34.6301887 C11.890566,34.109434 11.6301887,33.154717 11.6301887,31.6792453 C11.6301887,31.5056604 11.6301887,31.245283 11.6301887,31.0716981 C11.6301887,30.6377358 11.6301887,30.1169811 11.6301887,29.7698113 L11.6301887,21.2641509 C11.6301887,20.7433962 11.2830189,20.3962264 10.7622642,20.3962264 C10.2415094,20.3962264 9.89433962,20.7433962 9.89433962,21.2641509 L9.89433962,29.8566038 C9.89433962,30.2037736 9.89433962,30.6377358 9.89433962,31.0716981 C9.89433962,31.3320755 9.89433962,31.5056604 9.89433962,31.7660377 C9.89433962,32.8075472 9.89433962,35.2377358 12.1509434,36.2792453 L12.845283,36.6264151 L12.845283,34.6301887 L12.845283,34.6301887 Z" id="Path" fill="#183066"></path>
                            <path d="M52.509434,31.0716981 C52.509434,30.6377358 52.509434,30.2037736 52.509434,29.7698113 L52.509434,21.2641509 C52.509434,20.7433962 52.1622642,20.3962264 51.6415094,20.3962264 C51.1207547,20.3962264 50.7735849,20.7433962 50.7735849,21.2641509 L50.7735849,29.7698113 C50.7735849,30.2037736 50.7735849,30.6377358 50.7735849,31.1584906 C50.8603774,32.9811321 50.7735849,34.1962264 49.4716981,34.8037736 L32.1132075,43.309434 C31.5056604,43.5698113 30.8981132,43.5698113 30.290566,43.309434 L23,39.7509434 L23,41.6603774 L29.5962264,44.8716981 C30.1169811,45.1320755 30.7245283,45.2188679 31.245283,45.3056604 C31.8528302,45.3056604 32.3735849,45.2188679 32.8943396,44.9584906 L50.2528302,36.4528302 C52.5962264,35.1509434 52.509434,32.8075472 52.509434,31.0716981 Z" id="Path" fill="#183066"></path>
                            <path d="M23,45.1320755 L12.845283,45.1320755 C12.3245283,45.1320755 11.9773585,44.7849057 11.9773585,44.2641509 L11.9773585,33.7622642 C11.890566,30.4641509 14.4075472,27.6867925 17.7056604,27.6 C21.0037736,27.5132075 23.7811321,30.0301887 23.8679245,33.3283019 C23.8679245,33.5018868 23.8679245,33.5886792 23.8679245,33.7622642 L23.8679245,44.2641509 C23.8679245,44.7849057 23.5207547,45.1320755 23,45.1320755 L23,45.1320755 Z" id="Shape" fill="#183066" fill-rule="nonzero"></path>
                            <path d="M13.7132075,43.3962264 L22.1320755,43.3962264 L22.1320755,33.7622642 C22.2188679,31.4188679 20.4830189,29.509434 18.1396226,29.3358491 C15.7962264,29.2490566 13.8867925,30.9849057 13.7132075,33.3283019 C13.7132075,33.4150943 13.7132075,33.5886792 13.7132075,33.6754717 L13.7132075,43.3962264 L13.7132075,43.3962264 Z" id="Path" fill="#f06e05" fill-rule="nonzero"></path>
                            <path d="M17.9660377,45.1320755 C17.445283,45.1320755 17.0981132,44.7849057 17.0981132,44.2641509 L17.0981132,39.0566038 C17.0981132,38.5358491 17.445283,38.1886792 17.9660377,38.1886792 C18.4867925,38.1886792 18.8339623,38.5358491 18.8339623,39.0566038 L18.8339623,44.3509434 C18.8339623,44.7849057 18.4,45.2188679 17.9660377,45.1320755 Z" id="Path" fill="#183066"></path>
                            <path d="M31.245283,13.5396226 C28.8150943,13.5396226 27.0792453,14.754717 27.0792453,15.8830189 C27.0792453,17.0113208 28.8150943,18.2264151 31.245283,18.2264151 C33.6754717,18.2264151 35.4113208,17.0113208 35.4113208,15.8830189 C35.4113208,14.754717 33.6754717,13.5396226 31.245283,13.5396226 Z" id="Path" fill="#f06e05" fill-rule="nonzero"></path>
                            <path d="M17.8792453,28.6415094 C17.3584906,28.6415094 17.0113208,28.2943396 17.0113208,27.7735849 L17.0113208,22.3924528 C17.0113208,22.045283 17.1849057,21.7849057 17.5320755,21.6113208 L30.8981132,15.1018868 C31.3320755,14.9283019 31.8528302,15.1018868 32.0264151,15.5358491 C32.2,15.9698113 32.0264151,16.490566 31.5924528,16.6641509 L18.6603774,23 L18.6603774,27.7735849 C18.7471698,28.2943396 18.3132075,28.6415094 17.8792453,28.6415094 Z" id="Path" fill="#183066"></path>
                        </g>
                    </g>
                </g>
            </g>
        </g>
    </g>
</svg>